<svg width="32" height="32" viewBox="0 0 32 32" fill="none" xmlns="http://www.w3.org/2000/svg">
<g id="open_u2njg_32.svg">
<path id="Vector" d="M9.33468 17.0361H22.668V14.7651H9.33468V17.0361ZM16.0024 29.5332C14.1476 29.5332 12.3972 29.179 10.7511 28.4706C9.10502 27.7621 7.66732 26.7933 6.43798 25.5639C5.20865 24.3346 4.23977 22.8973 3.53135 21.2519C2.82295 19.6066 2.46875 17.8565 2.46875 16.0017C2.46875 14.1246 2.82295 12.363 3.53135 10.717C4.23977 9.0709 5.20823 7.63861 6.43672 6.42009C7.66523 5.20161 9.10235 4.23696 10.7481 3.52616C12.3938 2.81536 14.1443 2.45996 15.9996 2.45996C17.8771 2.45996 19.6392 2.81516 21.2859 3.52556C22.9326 4.23594 24.365 5.20003 25.5831 6.41783C26.8012 7.63563 27.7655 9.06766 28.4761 10.7139C29.1867 12.3602 29.542 14.1224 29.542 16.0006C29.542 17.8561 29.1866 19.6069 28.4757 21.2529C27.7649 22.8989 26.8003 24.3362 25.5818 25.5649C24.3633 26.7936 22.9314 27.7621 21.2861 28.4706C19.6407 29.179 17.8795 29.5332 16.0024 29.5332Z" fill="white"/>
</g>
</svg>
