<svg width="28" height="28" viewBox="0 0 28 28" fill="none" xmlns="http://www.w3.org/2000/svg">
<g id="close_exodk_28.svg" clip-path="url(#clip0_29_63)">
<path id="Vector" d="M13.0535 20.2551H15.1492V14.7218H20.7158V12.6261H15.1492V6.8261H13.0535V12.6261H7.28685V14.7218H13.0535V20.2551ZM14.0113 27.0732C12.1402 27.0732 10.3841 26.719 8.74328 26.0106C7.10242 25.3022 5.66732 24.3333 4.43798 23.104C3.20865 21.8746 2.23977 20.4391 1.53135 18.7973C0.82295 17.1555 0.46875 15.3981 0.46875 13.525C0.46875 11.652 0.82295 9.89421 1.53135 8.2517C2.23977 6.60917 3.20823 5.17864 4.43672 3.96013C5.66523 2.74164 7.10057 1.777 8.74275 1.0662C10.3849 0.355401 12.1428 0 14.0162 0C15.8897 0 17.6481 0.355201 19.2912 1.0656C20.9344 1.77598 22.365 2.74007 23.5831 3.95787C24.8012 5.17567 25.7655 6.6077 26.4761 8.25397C27.1867 9.90026 27.542 11.6595 27.542 13.5317C27.542 15.4036 27.1865 17.16 26.4757 18.8007C25.7649 20.4415 24.8003 21.8742 23.5818 23.0988C22.3633 24.3234 20.9314 25.2919 19.2861 26.0044C17.6407 26.7169 15.8825 27.0732 14.0113 27.0732Z" fill="#0B0419"/>
</g>
<defs>
<clipPath id="clip0_29_63">
<rect width="28" height="28" fill="white"/>
</clipPath>
</defs>
</svg>
