<svg width="76" height="76" viewBox="0 0 76 76" fill="none" xmlns="http://www.w3.org/2000/svg">
<g id="followers_kymjk_40.svg" clip-path="url(#clip0_2_107)">
<path id="Vector" d="M38 76C58.9868 76 76 58.9868 76 38C76 17.0132 58.9868 0 38 0C17.0132 0 0 17.0132 0 38C0 58.9868 17.0132 76 38 76Z" fill="url(#paint0_linear_2_107)"/>
<path id="Vector_2" d="M38.0002 58.2631C37.351 58.2631 36.7251 58.0279 36.2374 57.6006C34.3951 55.9898 32.6192 54.4762 31.0523 53.1409L31.0443 53.1339C26.4503 49.2191 22.4831 45.8381 19.7229 42.5077C16.6374 38.7845 15.2002 35.2543 15.2002 31.3979C15.2002 27.6511 16.485 24.1942 18.8177 21.664C21.1782 19.1037 24.4171 17.6937 27.9389 17.6937C30.5712 17.6937 32.9817 18.5259 35.1035 20.167C36.1743 20.9954 37.145 22.009 38.0002 23.1916C38.8556 22.009 39.8259 20.9954 40.8971 20.167C43.019 18.5259 45.4296 17.6937 48.0618 17.6937C51.5833 17.6937 54.8224 19.1037 57.183 21.664C59.5156 24.1942 60.8002 27.6511 60.8002 31.3979C60.8002 35.2543 59.3632 38.7845 56.2778 42.5074C53.5175 45.8381 49.5509 49.2187 44.9574 53.1333C43.3876 54.4705 41.6089 55.9867 39.7626 57.6013C39.2753 58.0279 38.649 58.2631 38.0002 58.2631ZM27.9389 20.3649C25.172 20.3649 22.6303 21.4692 20.7812 23.4745C18.9046 25.5099 17.871 28.3238 17.871 31.3979C17.871 34.6414 19.0766 37.5421 21.7793 40.8032C24.3916 43.9557 28.2773 47.2669 32.7765 51.1012L32.7847 51.1081C34.3577 52.4485 36.1407 53.9682 37.9964 55.5908C39.8631 53.9651 41.649 52.443 43.225 51.1005C47.7236 47.2663 51.6089 43.9557 54.2213 40.8032C56.9238 37.5421 58.1294 34.6414 58.1294 31.3979C58.1294 28.3238 57.0958 25.5099 55.2191 23.4745C53.3704 21.4692 50.8282 20.3649 48.0618 20.3649C46.0349 20.3649 44.1741 21.0092 42.5309 22.2798C41.0666 23.4125 40.0465 24.8444 39.4484 25.8464C39.1409 26.3617 38.5996 26.6691 38.0002 26.6691C37.4007 26.6691 36.8594 26.3617 36.5518 25.8464C35.9541 24.8444 34.9342 23.4125 33.4695 22.2798C31.8263 21.0092 29.9655 20.3649 27.9389 20.3649Z" fill="white"/>
</g>
<defs>
<linearGradient id="paint0_linear_2_107" x1="38" y1="0" x2="38" y2="76" gradientUnits="userSpaceOnUse">
<stop stop-color="#FEEA04"/>
<stop offset="1" stop-color="#006478"/>
</linearGradient>
<clipPath id="clip0_2_107">
<rect width="75.17" height="75.17" fill="white" transform="scale(1.01104)"/>
</clipPath>
</defs>
</svg>
