<svg width="40" height="41" viewBox="0 0 40 41" fill="none" xmlns="http://www.w3.org/2000/svg">
<g id="dateicon_kyodu_40.svg" clip-path="url(#clip0_2_127)">
<path id="Vector" d="M20 40.5C31.0457 40.5 40 31.5457 40 20.5C40 9.4543 31.0457 0.5 20 0.5C8.9543 0.5 0 9.4543 0 20.5C0 31.5457 8.9543 40.5 20 40.5Z" fill="#006478"/>
<path id="Vector_2" d="M25 22.5C25.5523 22.5 26 22.0523 26 21.5C26 20.9477 25.5523 20.5 25 20.5C24.4477 20.5 24 20.9477 24 21.5C24 22.0523 24.4477 22.5 25 22.5Z" fill="#F8F8F8"/>
<path id="Vector_3" d="M25 26.5C25.5523 26.5 26 26.0523 26 25.5C26 24.9477 25.5523 24.5 25 24.5C24.4477 24.5 24 24.9477 24 25.5C24 26.0523 24.4477 26.5 25 26.5Z" fill="#F8F8F8"/>
<path id="Vector_4" d="M21 21.5C21 22.0523 20.5523 22.5 20 22.5C19.4477 22.5 19 22.0523 19 21.5C19 20.9477 19.4477 20.5 20 20.5C20.5523 20.5 21 20.9477 21 21.5Z" fill="#F8F8F8"/>
<path id="Vector_5" d="M21 25.5C21 26.0523 20.5523 26.5 20 26.5C19.4477 26.5 19 26.0523 19 25.5C19 24.9477 19.4477 24.5 20 24.5C20.5523 24.5 21 24.9477 21 25.5Z" fill="#F8F8F8"/>
<path id="Vector_6" d="M15 22.5C15.5523 22.5 16 22.0523 16 21.5C16 20.9477 15.5523 20.5 15 20.5C14.4477 20.5 14 20.9477 14 21.5C14 22.0523 14.4477 22.5 15 22.5Z" fill="#F8F8F8"/>
<path id="Vector_7" d="M15 26.5C15.5523 26.5 16 26.0523 16 25.5C16 24.9477 15.5523 24.5 15 24.5C14.4477 24.5 14 24.9477 14 25.5C14 26.0523 14.4477 26.5 15 26.5Z" fill="#F8F8F8"/>
<path id="Vector_8" fill-rule="evenodd" clip-rule="evenodd" d="M15 10.25C15.4142 10.25 15.75 10.5858 15.75 11V11.7627C16.412 11.75 17.1413 11.75 17.9435 11.75H22.0564C22.8586 11.75 23.588 11.75 24.25 11.7627V11C24.25 10.5858 24.5858 10.25 25 10.25C25.4142 10.25 25.75 10.5858 25.75 11V11.8271C26.0099 11.8469 26.2561 11.8718 26.489 11.9031C27.6614 12.0608 28.6104 12.3929 29.3588 13.1412C30.1071 13.8896 30.4392 14.8386 30.5969 16.011C30.75 17.1502 30.75 18.6058 30.75 20.4435V22.5564C30.75 24.3941 30.75 25.8498 30.5969 26.989C30.4392 28.1614 30.1071 29.1104 29.3588 29.8588C28.6104 30.6071 27.6614 30.9392 26.489 31.0969C25.3498 31.25 23.8942 31.25 22.0565 31.25H17.9436C16.1058 31.25 14.6502 31.25 13.511 31.0969C12.3386 30.9392 11.3896 30.6071 10.6412 29.8588C9.89288 29.1104 9.56076 28.1614 9.40314 26.989C9.24997 25.8498 9.24998 24.3942 9.25 22.5564V20.4436C9.24998 18.6058 9.24997 17.1502 9.40314 16.011C9.56076 14.8386 9.89288 13.8896 10.6412 13.1412C11.3896 12.3929 12.3386 12.0608 13.511 11.9031C13.7439 11.8718 13.9901 11.8469 14.25 11.8271V11C14.25 10.5858 14.5858 10.25 15 10.25ZM13.7108 13.3898C12.7048 13.525 12.1251 13.7787 11.7019 14.2019C11.2787 14.6251 11.025 15.2048 10.8898 16.2108C10.8669 16.3812 10.8477 16.5606 10.8317 16.75H29.1683C29.1523 16.5606 29.1331 16.3812 29.1102 16.2108C28.975 15.2048 28.7213 14.6251 28.2981 14.2019C27.8749 13.7787 27.2952 13.525 26.2892 13.3898C25.2615 13.2516 23.9068 13.25 22 13.25H18C16.0932 13.25 14.7385 13.2516 13.7108 13.3898ZM10.75 20.5C10.75 19.646 10.7503 18.9027 10.7631 18.25H29.2369C29.2497 18.9027 29.25 19.646 29.25 20.5V22.5C29.25 24.4068 29.2484 25.7615 29.1102 26.7892C28.975 27.7952 28.7213 28.3749 28.2981 28.7981C27.8749 29.2213 27.2952 29.475 26.2892 29.6102C25.2615 29.7484 23.9068 29.75 22 29.75H18C16.0932 29.75 14.7385 29.7484 13.7108 29.6102C12.7048 29.475 12.1251 29.2213 11.7019 28.7981C11.2787 28.3749 11.025 27.7952 10.8898 26.7892C10.7516 25.7615 10.75 24.4068 10.75 22.5V20.5Z" fill="#F8F8F8"/>
</g>
<defs>
<clipPath id="clip0_2_127">
<rect width="40" height="41" fill="white"/>
</clipPath>
</defs>
</svg>
