<svg width="40" height="41" viewBox="0 0 40 41" fill="none" xmlns="http://www.w3.org/2000/svg">
<g id="time_qynze_40.svg" clip-path="url(#clip0_2_142)">
<path id="Vector" d="M20 40.5C31.0457 40.5 40 31.5457 40 20.5C40 9.4543 31.0457 0.5 20 0.5C8.9543 0.5 0 9.4543 0 20.5C0 31.5457 8.9543 40.5 20 40.5Z" fill="#006478"/>
<path id="Vector_2" fill-rule="evenodd" clip-rule="evenodd" d="M19.25 10.5C19.25 10.0858 19.5858 9.75 20 9.75C25.9371 9.75 30.75 14.5629 30.75 20.5C30.75 26.4371 25.9371 31.25 20 31.25C14.0629 31.25 9.25 26.4371 9.25 20.5C9.25 20.0858 9.58579 19.75 10 19.75C10.4142 19.75 10.75 20.0858 10.75 20.5C10.75 25.6086 14.8914 29.75 20 29.75C25.1086 29.75 29.25 25.6086 29.25 20.5C29.25 15.3914 25.1086 11.25 20 11.25C19.5858 11.25 19.25 10.9142 19.25 10.5ZM20 16.75C20.4142 16.75 20.75 17.0858 20.75 17.5V20.75H24C24.4142 20.75 24.75 21.0858 24.75 21.5C24.75 21.9142 24.4142 22.25 24 22.25H20C19.5858 22.25 19.25 21.9142 19.25 21.5V17.5C19.25 17.0858 19.5858 16.75 20 16.75Z" fill="#F8F8F8"/>
<path id="Vector_3" fill-rule="evenodd" clip-rule="evenodd" d="M17.1001 10.8975C17.2492 11.284 17.0569 11.7181 16.6705 11.8673C16.5291 11.9219 16.3893 11.9799 16.2513 12.0411C15.8727 12.2092 15.4296 12.0386 15.2615 11.66C15.0934 11.2814 15.2641 10.8382 15.6427 10.6702C15.8032 10.5989 15.9658 10.5315 16.1303 10.468C16.5167 10.3188 16.9509 10.5111 17.1001 10.8975ZM13.6482 12.7403C13.9339 13.0402 13.9223 13.5149 13.6223 13.8006C13.5127 13.9051 13.4056 14.0122 13.3011 14.1218C13.0154 14.4218 12.5407 14.4334 12.2408 14.1477C11.9408 13.862 11.9292 13.3873 12.2149 13.0874C12.3362 12.96 12.4605 12.8357 12.5879 12.7144C12.8878 12.4287 13.3625 12.4403 13.6482 12.7403ZM11.1605 15.761C11.5391 15.9291 11.7097 16.3722 11.5416 16.7508C11.4804 16.8888 11.4224 17.0286 11.3678 17.17C11.2186 17.5564 10.7845 17.7487 10.398 17.5996C10.0116 17.4504 9.81933 17.0162 9.9685 16.6298C10.032 16.4653 10.0994 16.3027 10.1707 16.1422C10.3387 15.7636 10.7819 15.5929 11.1605 15.761Z" fill="#F8F8F8"/>
</g>
<defs>
<clipPath id="clip0_2_142">
<rect width="40" height="41" fill="white"/>
</clipPath>
</defs>
</svg>
