<svg width="40" height="41" viewBox="0 0 40 41" fill="none" xmlns="http://www.w3.org/2000/svg">
<g id="live_y3mjq_40.svg" clip-path="url(#clip0_2_152)">
<path id="Vector" d="M20 40.5C31.0457 40.5 40 31.5457 40 20.5C40 9.4543 31.0457 0.5 20 0.5C8.9543 0.5 0 9.4543 0 20.5C0 31.5457 8.9543 40.5 20 40.5Z" fill="#006478"/>
<path id="Vector_2" d="M16.6761 25.75C16.4866 25.7494 16.3044 25.677 16.1661 25.5475C15.4812 24.8973 14.9358 24.1145 14.5631 23.2467C14.1904 22.379 13.9982 21.4444 13.9982 20.5C13.9982 19.5556 14.1904 18.6211 14.5631 17.7534C14.9358 16.8856 15.4812 16.1028 16.1661 15.4525C16.3137 15.3329 16.5012 15.2737 16.6907 15.2869C16.8803 15.3001 17.0577 15.3848 17.1872 15.5239C17.3167 15.6629 17.3887 15.8459 17.3884 16.0359C17.3882 16.2259 17.3159 16.4088 17.1861 16.5475C16.6529 17.0586 16.2287 17.6722 15.9389 18.3514C15.6491 19.0307 15.4996 19.7615 15.4996 20.5C15.4996 21.2385 15.6491 21.9694 15.9389 22.6487C16.2287 23.3279 16.6529 23.9415 17.1861 24.4525C17.2957 24.5552 17.372 24.6884 17.4051 24.835C17.4382 24.9815 17.4265 25.1346 17.3715 25.2744C17.3165 25.4142 17.2209 25.5343 17.0969 25.6191C16.9729 25.7039 16.8263 25.7495 16.6761 25.75ZM13.6761 27.76C13.8158 27.6195 13.8942 27.4294 13.8942 27.2313C13.8942 27.0331 13.8158 26.8431 13.6761 26.7025C12.837 25.902 12.1691 24.9396 11.7127 23.8735C11.2564 22.8073 11.0211 21.6597 11.0211 20.5C11.0211 19.3403 11.2564 18.1927 11.7127 17.1266C12.1691 16.0605 12.837 15.098 13.6761 14.2975C13.8213 14.1573 13.9048 13.9651 13.9083 13.7633C13.9119 13.5615 13.835 13.3665 13.6948 13.2213C13.5546 13.0761 13.3624 12.9925 13.1606 12.989C12.9587 12.9855 12.7638 13.0623 12.6186 13.2025C11.6306 14.1439 10.8441 15.2761 10.3067 16.5305C9.76929 17.7849 9.49219 19.1354 9.49219 20.5C9.49219 21.8647 9.76929 23.2151 10.3067 24.4695C10.8441 25.7239 11.6306 26.8561 12.6186 27.7975C12.6907 27.8654 12.7756 27.9184 12.8684 27.9532C12.9611 27.9881 13.0599 28.0043 13.1589 28.0008C13.2579 27.9973 13.3553 27.9743 13.4453 27.9329C13.5354 27.8916 13.6163 27.8328 13.6836 27.76H13.6761ZM23.8236 25.5475C24.5085 24.8973 25.0539 24.1145 25.4266 23.2467C25.7993 22.379 25.9915 21.4444 25.9915 20.5C25.9915 19.5556 25.7993 18.6211 25.4266 17.7534C25.0539 16.8856 24.5085 16.1028 23.8236 15.4525C23.7517 15.3851 23.6672 15.3324 23.5749 15.2976C23.4827 15.2628 23.3845 15.2465 23.2859 15.2496C23.1874 15.2527 23.0904 15.2753 23.0006 15.3159C22.9107 15.3565 22.8298 15.4144 22.7623 15.4863C22.6948 15.5582 22.6422 15.6427 22.6074 15.7349C22.5726 15.8272 22.5563 15.9253 22.5594 16.0239C22.5625 16.1224 22.585 16.2194 22.6257 16.3093C22.6663 16.3991 22.7242 16.4801 22.7961 16.5475C23.3321 17.0569 23.7589 17.6699 24.0505 18.3494C24.3422 19.0289 24.4926 19.7606 24.4926 20.5C24.4926 21.2395 24.3422 21.9712 24.0505 22.6506C23.7589 23.3301 23.3321 23.9432 22.7961 24.4525C22.6513 24.588 22.5661 24.7754 22.559 24.9735C22.552 25.1717 22.6237 25.3646 22.7586 25.51C22.8294 25.5864 22.9153 25.6471 23.0108 25.6884C23.1064 25.7298 23.2095 25.7507 23.3136 25.75C23.503 25.7494 23.6852 25.677 23.8236 25.5475ZM27.3636 27.7975C28.3544 26.8578 29.1435 25.7262 29.6828 24.4715C30.222 23.2169 30.5001 21.8656 30.5001 20.5C30.5001 19.1344 30.222 17.7831 29.6828 16.5285C29.1435 15.2739 28.3544 14.1423 27.3636 13.2025C27.216 13.0829 27.0285 13.0237 26.8389 13.0369C26.6494 13.0501 26.4719 13.1348 26.3424 13.2739C26.2129 13.4129 26.141 13.5959 26.1412 13.7859C26.1414 13.9759 26.2137 14.1588 26.3436 14.2975C27.1826 15.098 27.8506 16.0605 28.3069 17.1266C28.7633 18.1927 28.9986 19.3403 28.9986 20.5C28.9986 21.6597 28.7633 22.8073 28.3069 23.8735C27.8506 24.9396 27.1826 25.902 26.3436 26.7025C26.1988 26.838 26.1136 27.0254 26.1065 27.2235C26.0995 27.4217 26.1712 27.6146 26.3061 27.76C26.376 27.8354 26.4607 27.8956 26.5549 27.9369C26.6491 27.9782 26.7507 27.9997 26.8536 28C27.043 27.9994 27.2252 27.927 27.3636 27.7975ZM21.4986 20.5C21.4986 20.2034 21.4106 19.9133 21.2458 19.6667C21.0809 19.42 20.8467 19.2277 20.5726 19.1142C20.2985 19.0007 19.9969 18.971 19.7059 19.0289C19.415 19.0867 19.1477 19.2296 18.9379 19.4394C18.7281 19.6491 18.5853 19.9164 18.5274 20.2074C18.4695 20.4984 18.4992 20.8 18.6127 21.0741C18.7263 21.3481 18.9185 21.5824 19.1652 21.7472C19.4119 21.9121 19.7019 22 19.9986 22C20.3964 22 20.7779 21.842 21.0592 21.5607C21.3405 21.2794 21.4986 20.8979 21.4986 20.5Z" fill="white"/>
</g>
<defs>
<clipPath id="clip0_2_152">
<rect width="40" height="41" fill="white"/>
</clipPath>
</defs>
</svg>
