<svg width="24" height="24" viewBox="0 0 24 24" fill="none" xmlns="http://www.w3.org/2000/svg">
<g id="Group">
<path id="Vector" d="M20.4853 3.5147C18.2188 1.24823 15.2053 0 12 0C8.7948 0 5.7812 1.24823 3.5148 3.5147C1.24833 5.7811 0 8.7947 0 12C0 15.2054 1.24828 18.2188 3.5147 20.4853C5.7812 22.7518 8.7947 24 12 24C15.2053 24 18.2188 22.7518 20.4853 20.4853C22.7518 18.2188 24 15.2054 24 12C24 8.7946 22.7518 5.7812 20.4853 3.5147ZM19.4926 4.5075C20.1334 5.1482 20.6815 5.8568 21.1312 6.6168H16.4666C16.2609 5.5798 15.9946 4.618 15.6721 3.7632C15.3719 2.9678 15.0297 2.2904 14.6546 1.7379C16.4691 2.2039 18.1332 3.1479 19.4926 4.5075ZM15.5624 12C15.5624 13.3619 15.4702 14.6835 15.294 15.9146H8.706C8.5298 14.6834 8.4377 13.3618 8.4377 12C8.4377 10.6143 8.5331 9.2701 8.7154 8.0206H15.2847C15.467 9.2701 15.5624 10.6143 15.5624 12ZM12 1.40386C12.8021 1.40386 13.6838 2.4712 14.3586 4.2589C14.6267 4.9692 14.8531 5.7622 15.0348 6.6167H8.9653C9.1469 5.7622 9.3733 4.9692 9.6414 4.2589C10.3162 2.4712 11.1979 1.40386 12 1.40386ZM4.5075 4.5074C5.8669 3.1479 7.531 2.2039 9.3456 1.7378C8.9704 2.2903 8.6282 2.9678 8.328 3.7632C8.0055 4.6179 7.7391 5.5797 7.5335 6.6167H2.8688C3.3186 5.8568 3.8667 5.1481 4.5075 4.5074ZM1.40391 12C1.40391 10.6137 1.66898 9.2681 2.1741 8.0206H7.2985C7.1246 9.2812 7.0338 10.6232 7.0338 12C7.0338 13.3532 7.1214 14.673 7.2894 15.9146H2.1481C1.66003 14.6854 1.40391 13.3624 1.40391 12ZM4.5075 19.4925C3.8485 18.8337 3.2878 18.1029 2.831 17.3184H7.5207C7.728 18.3802 7.9987 19.3643 8.328 20.2368C8.6282 21.0322 8.9704 21.7096 9.3455 22.2621C7.531 21.7961 5.8669 20.8521 4.5075 19.4925ZM12 22.5961C11.1979 22.5961 10.3162 21.5288 9.6415 19.7411C9.3667 19.013 9.1358 18.1977 8.9519 17.3184H15.0482C14.8643 18.1977 14.6334 19.0129 14.3586 19.7411C13.6838 21.5288 12.8021 22.5961 12 22.5961ZM19.4926 19.4926C18.1331 20.8521 16.4691 21.7961 14.6545 22.2622C15.0297 21.7097 15.3719 21.0322 15.672 20.2368C16.0013 19.3643 16.272 18.3802 16.4794 17.3185H21.1691C20.7123 18.1029 20.1515 18.8337 19.4926 19.4926ZM16.7106 15.9146C16.8787 14.673 16.9663 13.3531 16.9663 12C16.9662 10.6232 16.8754 9.2811 16.7016 8.0206H21.826C22.3311 9.2681 22.5962 10.6136 22.5962 12C22.5962 13.3625 22.3401 14.6853 21.852 15.9146H16.7106Z" fill="#F8F8F8"/>
</g>
</svg>
