<svg width="72" height="69" viewBox="0 0 72 69" fill="none" xmlns="http://www.w3.org/2000/svg">
<g id="Group">
<path id="Vector" opacity="0.5" fill-rule="evenodd" clip-rule="evenodd" d="M0 68.0161C21.4 45.8161 22 45.216 32.8 34.316C32.8 34.1827 32.7667 34.0494 32.7 33.916C32.5667 33.916 32.4667 33.916 32.4 33.916C32.2667 33.716 32.1333 33.3827 32 32.916C29.7 30.716 20.8 20.716 18.7 11.016C18.7 11.016 19 10.716 19.2 10.716C20.7 19.416 28 27.816 31.4 31.316C31.4 31.2494 31.3667 31.1827 31.3 31.116C29.2 28.116 25.8 23.416 22.9 18.616C21.9 17.016 20.7 11.116 19.5 10.116C19.6333 9.98272 19.8 9.84938 20 9.71605C21 10.616 22.8 17.316 23.8 19.016C25.8667 22.3494 28.0667 25.5827 30.4 28.716C27 21.116 21.7 7.41605 22 0.316049C22 0.316049 22.2 -0.0839506 22.5 0.0160494C22.1 6.21605 26.4 17.516 29.8 25.316C29.6 24.6494 29.4333 23.916 29.3 23.116C28.9667 22.0494 28.6667 20.9827 28.4 19.916C27.6 17.616 26.6 15.316 25.7 13.416C24.9 11.816 23.8 9.31605 24.4 7.91605C24.5 7.31605 24.9 7.91605 24.9 7.91605C24.2 9.31605 25.8 12.316 26.6 14.116C27 14.9827 27.4 15.916 27.8 16.916C27.2 13.916 27 10.916 27.3 8.01605C27.3667 7.94938 27.4333 7.91605 27.5 7.91605C27.5667 7.91605 27.6333 7.94938 27.7 8.01605C27.3 11.616 27.8 15.316 28.5 18.816C27.8 13.716 27.7 8.01605 28.8 2.81605C28.8 2.74938 28.8667 2.68272 29 2.61605C29.0667 2.61605 29.1333 2.64938 29.2 2.71605C27.9 9.21605 28.5 16.116 29.5 21.816C30.3 24.216 31.1 26.616 31.7 28.616C32.4 30.316 33.1 31.716 33.4 32.416C33.4667 32.3494 33.5333 32.2827 33.6 32.216C33.6 32.1494 33.6 32.116 33.6 32.116C29.6 25.616 29.2 12.316 32.6 1.41605C32.6 1.41605 32.7 1.51605 32.9 1.61605C28.6 17.616 31.6 27.016 33.6 31.016C33.3 23.816 33.3 7.51605 34.9 1.31605C34.9 1.31605 35.2 1.01605 35.3 1.21605C33.8 6.81605 33.9 19.516 34.1 27.416C34.4 19.016 35.6 5.81605 37.9 0.616049C38.1 0.516049 38.3 0.516049 38.5 0.616049C36.4 6.51605 35.4 14.616 35 21.516C36.3 13.816 38.4 4.61605 41.4 0.216049C41.4 0.216049 41.9 -0.0839506 42 0.116049C38 6.01605 35.7 20.616 34.7 28.816C34.7 29.3494 34.7 29.8494 34.7 30.316C37.2 24.916 39.3 19.316 40.8 13.516C41.3 11.516 44.8 7.41605 44.9 5.61605C45.1 5.61605 45.3 5.68272 45.5 5.81605C45.4 7.21605 41.9 11.816 41.3 13.916C40.2 17.916 38.7 22.216 37.4 25.916C40.7 19.216 45.9 9.91605 49.4 6.41605C49.4 6.41605 49.8 6.51605 49.8 6.71605C45.3 11.416 39.9 21.916 36.9 28.216C41.2 23.316 48 16.316 51.8 14.116C51.8 14.116 52.1 14.316 52.1 14.516C47.1 17.516 40 25.416 36.1 30.016C35.7 30.8827 35.3667 31.5827 35.1 32.116C39.6 29.016 50.1 21.416 53.6 16.216C54.2 16.116 54 16.616 54 16.616C50.8 21.216 39.3 30.016 34.8 33.016C34.8667 33.0827 34.9 33.116 34.9 33.116C39.1 31.916 55.5 26.916 59.9 22.316C60.5 22.416 60.1 22.916 60.1 22.916C55.5 26.916 42.8 31.416 36.9 33.116C37.5 33.0494 38.1667 32.9827 38.9 32.916C45.1 31.816 55.8 29.716 60.7 26.816C61.3 27.016 60.9 27.416 60.9 27.416C58.2 28.916 52.7 30.516 47.4 31.716C52.6 30.816 58.3 29.616 62.9 27.716C63 27.816 63 28.016 62.9 28.216C58.3 30.416 47.1 32.416 40.4 33.216C40.2 33.2827 40 33.316 39.8 33.316C47.6 33.316 61.4 32.616 68.7 28.416C68.8333 28.416 68.9333 28.4827 69 28.616C69.0667 28.7494 69.1 28.8827 69.1 29.016C61.5 33.616 44.5 34.216 37.4 34.116C43.2 34.616 58.9 35.816 67 32.716L67.1 33.116C63.1 34.716 55.7 35.216 49 35.116C56.9 35.516 66.2 35.416 70.9 33.516C71.6 33.816 70.8 34.216 70.8 34.216C63.3 36.716 47.6 36.016 39.7 35.216C44.1 36.216 48.5333 36.9494 53 37.416C54 37.516 55.7 38.116 57.4 38.816C62.7 39.316 68 39.416 72 38.716V39.116C68.8 39.816 64 39.716 58.8 39.316C59.7 39.616 60.5 39.816 61 39.716C61.0667 39.916 61.1 40.116 61.1 40.316C60.4 40.316 58.7 39.716 57 39.116C51 38.516 44.8 37.516 40.3 36.716C45.3 38.816 54.3 41.416 68.2 41.316C68.4 41.716 68 41.716 68 41.716C59.8 42.1161 50.5 40.716 43.7 38.616C51.2 41.816 60.9 45.3161 66.4 44.916C66.9 45.516 66 45.616 66 45.616C57.6 45.516 41.9 38.816 35.8 35.816C38.1 39.516 44.2 45.716 60.1 49.916C60.0333 50.0494 59.9667 50.216 59.9 50.416C46.3 46.8161 38.3 41.016 35.1 35.616C34.3667 35.4827 33.8333 35.3494 33.5 35.216C29.5 39.316 17 51.916 1.2 68.6161L0 68.0161ZM32.6 1.31605C32.6 1.31605 32.6 1.34938 32.6 1.41605C32.5 1.31605 32.6 1.31605 32.6 1.31605ZM31.3 28.816C31.2333 28.6827 31.1667 28.5494 31.1 28.416C31.0333 28.1494 30.9667 27.916 30.9 27.716C30.9667 27.916 31 28.116 31 28.316C31.1333 28.4494 31.2333 28.616 31.3 28.816ZM38.4 35.816C42.6 36.716 49 37.816 55.5 38.616C54.4 38.216 53.5 37.916 52.8 37.816C47.6 37.3494 42.4667 36.516 37.4 35.316C37.7333 35.516 38.0667 35.6827 38.4 35.816ZM35.7 35.016C35.6333 34.9494 35.6 34.916 35.6 34.916C35.5333 34.8494 35.4667 34.816 35.4 34.816C35.4667 34.8827 35.5667 34.9494 35.7 35.016ZM33.9 34.916C33.9 34.916 33.9333 34.916 34 34.916C33.9333 34.916 33.9 34.8827 33.9 34.816C33.9 34.8827 33.9 34.916 33.9 34.916Z" fill="#006478"/>
</g>
</svg>
