<svg width="72" height="17" viewBox="0 0 72 17" fill="none" xmlns="http://www.w3.org/2000/svg">
<g id="SVG">
<path id="ytp-id-32" d="M12.4181 0.931568C10.492 0.956183 6.47352 1.03618 5.22429 1.35618C4.30736 1.60234 3.63044 2.3408 3.38429 3.20234C2.95967 4.86388 2.96583 8.31618 2.96583 8.31618C2.96583 8.31618 2.95967 11.7685 3.38429 13.43C3.62429 14.3531 4.36275 15.03 5.22429 15.2762C6.87967 15.707 13.4704 15.6946 13.4704 15.6946C13.4704 15.6946 20.0551 15.7008 21.7166 15.2762C22.6397 15.03 23.3104 14.2916 23.5566 13.43C23.9812 11.7685 23.9751 8.31618 23.9751 8.31618C23.9751 8.31618 24.0427 4.86388 23.5566 3.20234C23.3104 2.27926 22.5781 1.60234 21.7166 1.35618C20.0674 0.925414 13.4766 0.931568 13.4766 0.931568C13.4766 0.931568 13.0643 0.925414 12.4243 0.931568H12.4181ZM56.8551 1.48541V14.5808H58.5658L58.7566 13.7377H58.812C58.9966 14.0454 59.2489 14.2793 59.5566 14.4639C59.8643 14.6485 60.2212 14.71 60.5904 14.71C61.2674 14.71 61.8151 14.4085 62.1227 13.7316C62.4304 13.0546 62.6212 12.07 62.6212 10.7162V9.23926C62.6212 8.25464 62.5535 7.45465 62.4304 6.83926C62.3074 6.29157 62.1227 5.8608 61.8151 5.55311C61.5074 5.30695 61.1381 5.19003 60.6458 5.19003C60.2828 5.19003 59.9197 5.30695 59.612 5.49157C59.3104 5.67618 58.9904 5.98388 58.8674 6.35311V1.49157H56.8489L56.8551 1.48541ZM26.092 1.96541L28.492 10.5193L28.6027 14.6485H30.6397V10.5193L33.0212 1.96541H30.9474L30.0858 5.84849C29.8397 7.01157 29.6489 7.81157 29.5874 8.30388H29.532C29.4089 7.62695 29.2181 6.82695 29.0335 5.84849L28.1904 1.96541H26.0981H26.092ZM44.3012 1.96541V3.63311H46.3935V14.6485H48.412V3.63311H50.5043C50.5043 3.63311 50.5043 1.96541 50.4489 1.96541H44.3012ZM11.3843 5.11618L16.8612 8.30388L11.3843 11.4362V5.11003V5.11618ZM66.3997 5.17157C65.3535 5.17157 64.6212 5.53465 64.1904 6.15003C63.7658 6.75926 63.5812 7.75003 63.5812 9.16541V10.7593C63.5812 12.1131 63.7658 13.1593 64.1904 13.7746C64.6212 14.4516 65.2981 14.7531 66.3443 14.7531C67.2058 14.7531 67.8089 14.5685 68.3012 14.1377C68.732 13.707 68.972 13.0977 68.972 12.2362V11.9285L67.1874 11.7993C67.1874 12.4146 67.1381 12.7839 67.0151 13.03C66.9535 13.2762 66.7074 13.4116 66.3997 13.4116C66.2151 13.4116 66.0243 13.3439 65.9012 13.2208C65.7781 13.0362 65.7166 12.8577 65.6551 12.55C65.5935 12.2423 65.5997 11.8054 65.5997 11.19V10.71L69.1135 10.6546V9.04234C69.1135 8.05772 69.052 7.33157 68.8674 6.77772C68.7443 6.23003 68.4304 5.79926 68.0612 5.55311C67.6304 5.30695 67.1504 5.19003 66.412 5.19003L66.3997 5.17157ZM35.3289 5.22695C34.6581 5.22695 34.092 5.33772 33.6612 5.64541C33.2304 5.89157 32.9227 6.33465 32.7443 6.95003C32.5597 7.56541 32.4366 8.34695 32.4366 9.33157V10.6916C32.4366 11.6146 32.4981 12.4023 32.6828 13.0177C32.8058 13.5716 33.1135 14.0146 33.5443 14.3223C33.9689 14.63 34.5966 14.7408 35.2735 14.8023C36.0058 14.8023 36.5535 14.63 36.9843 14.3839C37.4089 14.1377 37.6551 13.7131 37.9012 13.0977C38.1412 12.4823 38.2028 11.6823 38.2028 10.6977V9.33772C38.2028 8.35311 38.0797 7.57157 37.9012 6.95618C37.7166 6.40849 37.4089 5.95926 36.9843 5.65157C36.5535 5.34388 36.012 5.23311 35.3351 5.23311L35.3289 5.22695ZM42.8243 5.28234V12.6054C42.7627 12.79 42.6458 12.9008 42.4612 13.0239C42.3381 13.147 42.1474 13.2146 41.9627 13.2146C41.7781 13.2146 41.6058 13.1531 41.5443 12.9685C41.4827 12.7839 41.4335 12.5377 41.4335 12.107V5.34388H39.3412V12.2423C39.3412 13.1039 39.452 13.7131 39.7597 14.1439C40.0612 14.5746 40.5043 14.7593 41.1197 14.7593C41.9812 14.7593 42.6458 14.3346 43.0766 13.4731H43.132L43.3228 14.5685H44.9166V5.34388C44.9166 5.34388 42.8243 5.34388 42.8243 5.28849V5.28234ZM53.4766 5.28234V12.6054C53.4151 12.79 53.2981 12.9008 53.1135 13.0239C52.9904 13.147 52.7997 13.2146 52.6151 13.2146C52.4304 13.2146 52.2581 13.1531 52.1966 12.9685C52.1351 12.7839 52.0674 12.5377 52.0674 12.107V5.34388H49.9751V12.2423C49.9751 13.1039 50.1043 13.7131 50.412 14.1439C50.7197 14.5746 51.1381 14.7593 51.7535 14.7593C52.6089 14.7593 53.2981 14.3346 53.7289 13.4731H53.7843L53.9566 14.5685H55.5689V5.34388C55.5689 5.34388 53.4766 5.34388 53.4766 5.28849V5.28234ZM66.3381 6.56849C66.5843 6.56849 66.6951 6.63618 66.8181 6.75926C66.9412 6.94388 67.0028 7.12234 67.0643 7.43003C67.1258 7.73772 67.1197 8.17465 67.1197 8.79003V9.4608H65.5812V8.79003C65.5812 8.17465 65.5812 7.73772 65.6366 7.43003C65.6366 7.18388 65.7043 6.93772 65.8274 6.81465C65.9504 6.63003 66.1412 6.56849 66.3258 6.56849H66.3381ZM35.2674 6.64234C35.5751 6.64234 35.7597 6.75311 35.8828 7.0608C35.9997 7.36849 36.0551 7.8608 36.0551 8.53772V11.4177C36.0551 12.0946 36.0058 12.587 35.8828 12.8946C35.7597 13.2023 35.5751 13.3131 35.2674 13.3131C34.9597 13.3131 34.7812 13.2023 34.6581 12.8946C34.5351 12.587 34.4674 12.0946 34.4674 11.4177V8.53772C34.4674 7.8608 34.5351 7.36849 34.6581 7.0608C34.7812 6.75311 34.9597 6.64234 35.2674 6.64234ZM59.6858 6.69772C59.8704 6.69772 60.0612 6.75926 60.1843 6.94388C60.3074 7.12849 60.3504 7.35618 60.412 7.78695C60.4735 8.15618 60.4858 8.71618 60.4858 9.45465L60.5412 10.6239C60.5412 11.3008 60.5412 11.8485 60.4858 12.2177C60.4243 12.587 60.3689 12.8823 60.1843 13.0054C60.0612 13.19 59.8766 13.2516 59.6304 13.2516C59.4458 13.2516 59.3166 13.2023 59.132 13.1408C59.0089 13.0793 58.892 12.9623 58.7689 12.7777V7.54695C58.8304 7.3008 58.9474 7.11618 59.132 6.93157C59.3166 6.74695 59.5012 6.68541 59.6858 6.68541V6.69772Z" fill="white" stroke="black" stroke-opacity="0.15" stroke-width="1.23077"/>
<path id="ytp-id-32_2" d="M12.4181 0.931568C10.492 0.956183 6.47352 1.03618 5.22429 1.35618C4.30736 1.60234 3.63044 2.3408 3.38429 3.20234C2.95967 4.86388 2.96583 8.31618 2.96583 8.31618C2.96583 8.31618 2.95967 11.7685 3.38429 13.43C3.62429 14.3531 4.36275 15.03 5.22429 15.2762C6.87967 15.707 13.4704 15.6946 13.4704 15.6946C13.4704 15.6946 20.0551 15.7008 21.7166 15.2762C22.6397 15.03 23.3104 14.2916 23.5566 13.43C23.9812 11.7685 23.9751 8.31618 23.9751 8.31618C23.9751 8.31618 24.0427 4.86388 23.5566 3.20234C23.3104 2.27926 22.5781 1.60234 21.7166 1.35618C20.0674 0.925414 13.4766 0.931568 13.4766 0.931568C13.4766 0.931568 13.0643 0.925414 12.4243 0.931568H12.4181ZM56.8551 1.48541V14.5808H58.5658L58.7566 13.7377H58.812C58.9966 14.0454 59.2489 14.2793 59.5566 14.4639C59.8643 14.6485 60.2212 14.71 60.5904 14.71C61.2674 14.71 61.8151 14.4085 62.1227 13.7316C62.4304 13.0546 62.6212 12.07 62.6212 10.7162V9.23926C62.6212 8.25464 62.5535 7.45465 62.4304 6.83926C62.3074 6.29157 62.1227 5.8608 61.8151 5.55311C61.5074 5.30695 61.1381 5.19003 60.6458 5.19003C60.2828 5.19003 59.9197 5.30695 59.612 5.49157C59.3104 5.67618 58.9904 5.98388 58.8674 6.35311V1.49157H56.8489L56.8551 1.48541ZM26.092 1.96541L28.492 10.5193L28.6027 14.6485H30.6397V10.5193L33.0212 1.96541H30.9474L30.0858 5.84849C29.8397 7.01157 29.6489 7.81157 29.5874 8.30388H29.532C29.4089 7.62695 29.2181 6.82695 29.0335 5.84849L28.1904 1.96541H26.0981H26.092ZM44.3012 1.96541V3.63311H46.3935V14.6485H48.412V3.63311H50.5043C50.5043 3.63311 50.5043 1.96541 50.4489 1.96541H44.3012ZM11.3843 5.11618L16.8612 8.30388L11.3843 11.4362V5.11003V5.11618ZM66.3997 5.17157C65.3535 5.17157 64.6212 5.53465 64.1904 6.15003C63.7658 6.75926 63.5812 7.75003 63.5812 9.16541V10.7593C63.5812 12.1131 63.7658 13.1593 64.1904 13.7746C64.6212 14.4516 65.2981 14.7531 66.3443 14.7531C67.2058 14.7531 67.8089 14.5685 68.3012 14.1377C68.732 13.707 68.972 13.0977 68.972 12.2362V11.9285L67.1874 11.7993C67.1874 12.4146 67.1381 12.7839 67.0151 13.03C66.9535 13.2762 66.7074 13.4116 66.3997 13.4116C66.2151 13.4116 66.0243 13.3439 65.9012 13.2208C65.7781 13.0362 65.7166 12.8577 65.6551 12.55C65.5935 12.2423 65.5997 11.8054 65.5997 11.19V10.71L69.1135 10.6546V9.04234C69.1135 8.05772 69.052 7.33157 68.8674 6.77772C68.7443 6.23003 68.4304 5.79926 68.0612 5.55311C67.6304 5.30695 67.1504 5.19003 66.412 5.19003L66.3997 5.17157ZM35.3289 5.22695C34.6581 5.22695 34.092 5.33772 33.6612 5.64541C33.2304 5.89157 32.9227 6.33465 32.7443 6.95003C32.5597 7.56541 32.4366 8.34695 32.4366 9.33157V10.6916C32.4366 11.6146 32.4981 12.4023 32.6828 13.0177C32.8058 13.5716 33.1135 14.0146 33.5443 14.3223C33.9689 14.63 34.5966 14.7408 35.2735 14.8023C36.0058 14.8023 36.5535 14.63 36.9843 14.3839C37.4089 14.1377 37.6551 13.7131 37.9012 13.0977C38.1412 12.4823 38.2028 11.6823 38.2028 10.6977V9.33772C38.2028 8.35311 38.0797 7.57157 37.9012 6.95618C37.7166 6.40849 37.4089 5.95926 36.9843 5.65157C36.5535 5.34388 36.012 5.23311 35.3351 5.23311L35.3289 5.22695ZM42.8243 5.28234V12.6054C42.7627 12.79 42.6458 12.9008 42.4612 13.0239C42.3381 13.147 42.1474 13.2146 41.9627 13.2146C41.7781 13.2146 41.6058 13.1531 41.5443 12.9685C41.4827 12.7839 41.4335 12.5377 41.4335 12.107V5.34388H39.3412V12.2423C39.3412 13.1039 39.452 13.7131 39.7597 14.1439C40.0612 14.5746 40.5043 14.7593 41.1197 14.7593C41.9812 14.7593 42.6458 14.3346 43.0766 13.4731H43.132L43.3228 14.5685H44.9166V5.34388C44.9166 5.34388 42.8243 5.34388 42.8243 5.28849V5.28234ZM53.4766 5.28234V12.6054C53.4151 12.79 53.2981 12.9008 53.1135 13.0239C52.9904 13.147 52.7997 13.2146 52.6151 13.2146C52.4304 13.2146 52.2581 13.1531 52.1966 12.9685C52.1351 12.7839 52.0674 12.5377 52.0674 12.107V5.34388H49.9751V12.2423C49.9751 13.1039 50.1043 13.7131 50.412 14.1439C50.7197 14.5746 51.1381 14.7593 51.7535 14.7593C52.6089 14.7593 53.2981 14.3346 53.7289 13.4731H53.7843L53.9566 14.5685H55.5689V5.34388C55.5689 5.34388 53.4766 5.34388 53.4766 5.28849V5.28234ZM66.3381 6.56849C66.5843 6.56849 66.6951 6.63618 66.8181 6.75926C66.9412 6.94388 67.0028 7.12234 67.0643 7.43003C67.1258 7.73772 67.1197 8.17465 67.1197 8.79003V9.4608H65.5812V8.79003C65.5812 8.17465 65.5812 7.73772 65.6366 7.43003C65.6366 7.18388 65.7043 6.93772 65.8274 6.81465C65.9504 6.63003 66.1412 6.56849 66.3258 6.56849H66.3381ZM35.2674 6.64234C35.5751 6.64234 35.7597 6.75311 35.8828 7.0608C35.9997 7.36849 36.0551 7.8608 36.0551 8.53772V11.4177C36.0551 12.0946 36.0058 12.587 35.8828 12.8946C35.7597 13.2023 35.5751 13.3131 35.2674 13.3131C34.9597 13.3131 34.7812 13.2023 34.6581 12.8946C34.5351 12.587 34.4674 12.0946 34.4674 11.4177V8.53772C34.4674 7.8608 34.5351 7.36849 34.6581 7.0608C34.7812 6.75311 34.9597 6.64234 35.2674 6.64234ZM59.6858 6.69772C59.8704 6.69772 60.0612 6.75926 60.1843 6.94388C60.3074 7.12849 60.3504 7.35618 60.412 7.78695C60.4735 8.15618 60.4858 8.71618 60.4858 9.45465L60.5412 10.6239C60.5412 11.3008 60.5412 11.8485 60.4858 12.2177C60.4243 12.587 60.3689 12.8823 60.1843 13.0054C60.0612 13.19 59.8766 13.2516 59.6304 13.2516C59.4458 13.2516 59.3166 13.2023 59.132 13.1408C59.0089 13.0793 58.892 12.9623 58.7689 12.7777V7.54695C58.8304 7.3008 58.9474 7.11618 59.132 6.93157C59.3166 6.74695 59.5012 6.68541 59.6858 6.68541V6.69772Z" fill="white"/>
</g>
</svg>
