<svg width="36" height="36" viewBox="0 0 36 36" fill="none" xmlns="http://www.w3.org/2000/svg">
<g id="SVG">
<path id="ytp-id-27" d="M20.2 14.19V9.73999L27.99 17.53L20.2 25.32V20.76C16.27 20.69 12.1 21.81 9.33997 24.76C8.79997 25.13 7.59997 27.29 8.11997 25.65C9.07997 21.32 11.8 17.18 15.98 15.38C17.31 14.78 18.74 14.4 20.19 14.19H20.2Z" fill="white" stroke="black" stroke-opacity="0.15" stroke-width="2"/>
<path id="ytp-id-27_2" d="M20.2 14.19V9.73999L27.99 17.53L20.2 25.32V20.76C16.27 20.69 12.1 21.81 9.33997 24.76C8.79997 25.13 7.59997 27.29 8.11997 25.65C9.07997 21.32 11.8 17.18 15.98 15.38C17.31 14.78 18.74 14.4 20.19 14.19H20.2Z" fill="white"/>
</g>
</svg>
