<svg width="35" height="45" viewBox="0 0 35 45" fill="none" xmlns="http://www.w3.org/2000/svg">
<g id="Group">
<path id="Vector" d="M34.4385 18.1292C35.3135 16.7888 35.1519 15.0449 34.0455 13.8881C33.558 13.3783 33.3542 12.6619 33.5002 11.9719C33.8321 10.4059 33.0513 8.83806 31.6018 8.15902C30.9629 7.85988 30.5142 7.26546 30.401 6.56931C30.1447 4.98916 28.8503 3.80916 27.2534 3.6997C26.5497 3.65137 25.9165 3.25934 25.5594 2.65085C24.7496 1.27028 23.1168 0.637564 21.5878 1.11221C20.9141 1.32143 20.1821 1.18448 19.6294 0.746125C18.3755 -0.248708 16.624 -0.248708 15.3701 0.746125C14.8174 1.18464 14.0854 1.32143 13.4117 1.11221C11.8831 0.637472 10.2499 1.27019 9.44008 2.65085C9.08299 3.25934 8.44994 3.65137 7.74606 3.6997C6.14917 3.80916 4.85492 4.98935 4.59846 6.56931C4.4855 7.26546 4.03661 7.85988 3.39786 8.15902C1.94834 8.83806 1.16755 10.4061 1.49926 11.9719C1.64533 12.6619 1.44149 13.3783 0.953962 13.8881C-0.152267 15.0449 -0.313979 16.789 0.560996 18.1294C0.946603 18.72 1.01541 19.4618 0.744785 20.1132C0.131051 21.5914 0.610485 23.2761 1.91044 24.2099C2.48333 24.6215 2.81522 25.2882 2.79829 25.9933C2.76021 27.5935 3.81566 28.9912 5.36526 29.3924C5.82262 29.5109 6.22 29.7755 6.50479 30.1364L2.94105 38.7397C2.44175 39.9455 3.57208 41.1869 4.81831 40.8044L8.72001 39.607C8.83389 39.5724 8.95697 39.6233 9.01271 39.7284L10.9249 43.3339C11.5364 44.4872 13.2134 44.4057 13.7123 43.2014L17.4265 34.2344C17.4753 34.2328 17.524 34.2328 17.5728 34.2344L21.287 43.2014C21.7869 44.4076 23.4636 44.4856 24.0746 43.3339L25.9866 39.7284C26.0423 39.6232 26.1654 39.5722 26.2795 39.6072L30.1808 40.8044C31.428 41.1873 32.5574 39.9449 32.0582 38.7399L28.4945 30.1366C28.7793 29.7756 29.1767 29.5109 29.634 29.3924C31.1835 28.9914 32.2389 27.5937 32.2008 25.9935C32.1839 25.2884 32.516 24.6216 33.0889 24.2101C34.389 23.2762 34.8682 21.5916 34.2545 20.1132C33.9843 19.4616 34.0531 18.7198 34.4385 18.1292ZM12.5174 42.7062C12.4363 42.9021 12.1667 42.9142 12.0678 42.7277L10.1555 39.1222C9.80968 38.47 9.04638 38.1541 8.34066 38.3705L4.43914 39.5678C4.23677 39.6298 4.05519 39.4304 4.13632 39.2346L7.2979 31.6016C8.01134 32.5787 9.20386 33.1234 10.4591 32.9768C11.1597 32.8951 11.8542 33.1639 12.3169 33.6963C12.988 34.469 13.9338 34.8792 14.8987 34.8791C15.2039 34.8791 15.511 34.8364 15.812 34.7528L12.5174 42.7062ZM30.5605 39.5678L26.659 38.3705C25.9535 38.154 25.19 38.47 24.8441 39.1222L22.9321 42.7275C22.8333 42.9139 22.5634 42.9019 22.4823 42.7062L19.1884 34.7543C20.4405 35.1018 21.7996 34.7129 22.6828 33.6961C23.1455 33.1637 23.8396 32.8945 24.5406 32.9766C25.7971 33.1234 26.9889 32.5787 27.7018 31.6014L30.8635 39.2344C30.9448 39.4307 30.7623 39.6294 30.5605 39.5678ZM33.3554 17.4222C32.7362 18.3712 32.6258 19.5624 33.0602 20.609C33.4423 21.5292 33.1441 22.5779 32.3346 23.1592C31.4143 23.8204 30.881 24.8913 30.9081 26.0241C30.932 27.0203 30.2748 27.8905 29.3101 28.1401C28.4079 28.3738 27.6501 28.961 27.1957 29.7552L27.192 29.762C27.0958 29.9313 27.0122 30.1094 26.9451 30.2961C26.6075 31.2336 25.681 31.8082 24.6907 31.6921C23.5653 31.5604 22.4495 31.9927 21.7065 32.8482C21.053 33.6003 19.9812 33.8006 19.1001 33.3353C18.8004 33.1771 18.4831 33.0671 18.1589 33.0036L18.151 33.002C17.7205 32.9185 17.2781 32.9186 16.8476 33.0022L16.843 33.0033C16.5181 33.0667 16.2002 33.1767 15.8997 33.3353C15.0187 33.8008 13.9469 33.6003 13.2934 32.8482C12.6383 32.0941 11.6936 31.6689 10.7078 31.6689C10.5756 31.6689 10.4424 31.6765 10.3092 31.6921C9.31976 31.808 8.39235 31.2338 8.05476 30.2961C7.98743 30.1097 7.90427 29.9318 7.80805 29.7626L7.80364 29.7545C7.34904 28.9606 6.59163 28.3736 5.68961 28.1401C4.72504 27.8903 4.06789 27.0203 4.0918 26.0243C4.11885 24.8913 3.58551 23.8204 2.66528 23.1592C1.85598 22.5779 1.55758 21.5292 1.93969 20.6088C2.37405 19.5624 2.26367 18.371 1.64441 17.4222C1.09967 16.5879 1.2003 15.5021 1.8891 14.782C2.67227 13.9632 2.99956 12.8124 2.76499 11.7038C2.55839 10.7291 3.04445 9.75296 3.94683 9.33019C4.97285 8.84965 5.69384 7.89483 5.87542 6.77628C6.03511 5.79276 6.84091 5.05816 7.83491 4.99009C8.96543 4.91245 9.98262 4.28271 10.5561 3.30523C11.0603 2.44578 12.0771 2.05202 13.0285 2.34746C14.1106 2.68354 15.2866 2.46371 16.1744 1.75941C16.9548 1.14007 18.0452 1.14007 18.8258 1.75941C19.7135 2.46364 20.8894 2.68362 21.9718 2.34746C22.9234 2.05193 23.9401 2.44587 24.4442 3.30523C25.0174 4.28271 26.0348 4.91245 27.1653 4.99009C28.1593 5.05834 28.9651 5.79276 29.1246 6.77628C29.3064 7.89483 30.0274 8.84965 31.0534 9.33037C31.9558 9.75296 32.4416 10.7291 32.2352 11.7038C32.0005 12.8124 32.328 13.9632 33.1111 14.782C33.7995 15.5021 33.9 16.5879 33.3554 17.4222Z" fill="white"/>
<path id="Vector_2" d="M5.24994 16.5686C5.60409 16.6122 5.92715 16.3601 5.97075 16.0056C6.68493 10.2007 11.6415 5.8231 17.4998 5.8231C23.361 5.8231 28.3177 10.2029 29.0295 16.0111C29.0696 16.339 29.3485 16.5793 29.6707 16.5793C29.697 16.5793 29.7235 16.5776 29.7502 16.5743C30.1047 16.5309 30.3569 16.2084 30.3135 15.8538C29.5222 9.39787 24.0135 4.52977 17.4998 4.52977C10.9892 4.52977 5.48083 9.3953 4.68699 15.8478C4.64339 16.2023 4.89543 16.525 5.24994 16.5686Z" fill="white"/>
<path id="Vector_3" d="M29.7503 18.3046C29.3969 18.2615 29.0733 18.5134 29.0299 18.8679C28.3181 24.6763 23.3615 29.0565 17.5 29.0565C11.6412 29.0565 6.68475 24.6785 5.97075 18.873C5.92715 18.5185 5.60464 18.2667 5.24994 18.3101C4.89543 18.3537 4.64339 18.6764 4.68699 19.0309C5.48046 25.4837 10.9888 30.3498 17.5 30.3498C24.0139 30.3498 29.5226 25.4813 30.3135 19.0252C30.3571 18.6707 30.1049 18.3482 29.7503 18.3046Z" fill="white"/>
<path id="Vector_4" d="M26.6315 14.7706C26.4671 14.2647 26.0174 13.9255 25.4857 13.9063L20.4149 13.7246L18.6749 8.95801C18.4926 8.45834 18.031 8.13546 17.4991 8.13546C16.9672 8.13546 16.5057 8.45834 16.3232 8.95801L14.5831 13.7246L9.51249 13.9063C8.9808 13.9255 8.53118 14.2647 8.3667 14.7706C8.20242 15.2766 8.3667 15.8152 8.78561 16.1431L12.7811 19.271L11.3872 24.1499C11.2409 24.6614 11.4247 25.1938 11.855 25.5065C12.285 25.8189 12.8481 25.8296 13.2898 25.5323L17.4989 22.6988L21.7084 25.5321C22.1494 25.8291 22.7127 25.8191 23.143 25.5064C23.5735 25.1938 23.7571 24.6612 23.6109 24.1497L22.2169 19.2708L26.2124 16.1431C26.6313 15.8152 26.7958 15.2766 26.6315 14.7706ZM21.3977 18.2696C20.9946 18.5851 20.825 19.1072 20.9657 19.5994L22.3359 24.3954L18.1982 21.6102C17.9857 21.4672 17.7423 21.3957 17.4989 21.3957C17.2557 21.3957 17.0123 21.4672 16.8 21.61L12.6621 24.3954L14.0323 19.5994C14.1731 19.1071 14.0034 18.5851 13.6004 18.2696L9.67254 15.1949L14.6577 15.016C15.1691 14.9977 15.613 14.675 15.7885 14.1942L17.4991 9.50864L19.2097 14.1942C19.3852 14.675 19.8291 14.9977 20.3406 15.0159L25.3253 15.1949L21.3977 18.2696Z" fill="white"/>
</g>
</svg>
