<svg width="43" height="44" viewBox="0 0 43 44" fill="none" xmlns="http://www.w3.org/2000/svg">
<g id="Group">
<path id="Vector" d="M5.91111 14.3095H13.7732C13.7493 14.478 13.7287 14.6476 13.7158 14.8193C13.6911 15.1472 13.8047 15.4732 14.0276 15.7134C14.2502 15.9534 14.5668 16.0912 14.8957 16.0912H28.011C28.3401 16.0912 28.6567 15.9534 28.8794 15.7132C29.1021 15.473 29.2158 15.1472 29.1911 14.8193C29.1783 14.6476 29.1576 14.4779 29.1335 14.3095H36.9956C37.3079 14.3095 37.6085 14.1788 37.82 13.9508C38.0316 13.7227 38.1395 13.4133 38.1163 13.1019C37.9142 10.4088 36.1536 8.15495 33.7652 7.20287C34.6882 6.46025 35.2805 5.32247 35.2805 4.04832C35.2807 1.816 33.4647 0 31.2326 0C29.0003 0 27.1843 1.816 27.1843 4.04814C27.1843 5.32192 27.7762 6.45951 28.6988 7.20214C27.667 7.6122 26.7382 8.26961 26 9.12855C25.4327 8.71574 24.809 8.37819 24.1437 8.12955C25.2479 7.30668 25.9646 5.99093 25.9646 4.51101C25.9644 2.02357 23.9408 0 21.4535 0C18.9661 0 16.9425 2.02357 16.9425 4.51101C16.9425 5.99093 17.6592 7.30668 18.7634 8.12955C18.0981 8.37819 17.4744 8.71574 16.9071 9.12855C16.1689 8.26961 15.2402 7.6122 14.2083 7.20214C15.1309 6.45951 15.7228 5.32192 15.7228 4.04814C15.7228 1.816 13.9066 0 11.6745 0C9.44241 0 7.62642 1.816 7.62642 4.04814C7.62642 5.32229 8.21868 6.46006 9.14167 7.20269C6.75331 8.15495 4.99253 10.4088 4.79064 13.1016C4.76726 13.413 4.87511 13.7225 5.08658 13.9506C5.29824 14.1786 5.5986 14.3095 5.91111 14.3095ZM28.5646 4.04814C28.5646 2.57718 29.7613 1.38035 31.2326 1.38035C32.7037 1.38035 33.9003 2.57718 33.9003 4.04814C33.9003 5.51904 32.704 6.71552 31.2333 6.71607C29.7626 6.71552 28.5646 5.51904 28.5646 4.04814ZM31.2315 8.09642C34.0117 8.09679 36.3682 10.1979 36.7124 12.9291H28.8056C28.4343 11.834 27.8246 10.8496 27.0407 10.035C28.0881 8.81236 29.6159 8.0966 31.2315 8.09642ZM18.3228 4.51101C18.3228 2.78468 19.7273 1.38035 21.4535 1.38035C23.1798 1.38035 24.5841 2.78468 24.5841 4.51101C24.5841 6.23718 23.1798 7.64146 21.4535 7.64146C19.7273 7.64146 18.3228 6.23718 18.3228 4.51101ZM27.7953 14.7109H15.1116C15.4604 11.5037 18.2058 9.02181 21.4535 9.02181C24.7013 9.02181 27.4466 11.5037 27.7953 14.7109ZM9.00677 4.04814C9.00677 2.57718 10.2034 1.38035 11.6745 1.38035C13.1458 1.38035 14.3425 2.57718 14.3425 4.04814C14.3425 5.51885 13.1462 6.71552 11.6756 6.71607C11.6753 6.71607 11.676 6.71607 11.6756 6.71607C11.6754 6.71607 11.6742 6.71607 11.6738 6.71607C10.2031 6.7157 9.00677 5.51904 9.00677 4.04814ZM11.6738 8.09642H11.6756C13.2912 8.0966 14.819 8.81236 15.8665 10.035C15.0827 10.8496 14.4729 11.834 14.1017 12.9291H6.19491C6.53889 10.1979 8.89358 8.09679 11.6738 8.09642ZM42.8787 32.8435L39.9076 17.9295C39.8321 17.5503 39.6128 17.2225 39.2898 17.007C38.9671 16.7915 38.5804 16.7144 38.2009 16.7899L34.3777 17.5516C33.9984 17.6271 33.6708 17.8465 33.4551 18.1693C33.2396 18.4921 33.1625 18.879 33.2381 19.2581L33.2716 19.4271C30.9876 20.1815 28.2127 20.3926 24.7617 17.5454C23.1763 16.2375 21.1102 16.1946 19.6204 17.4386L18.0782 18.7262H9.6743C9.57382 18.1533 9.13339 17.6718 8.52954 17.5516L4.70616 16.7899C4.32702 16.7142 3.94016 16.7913 3.61734 17.007C3.29452 17.2225 3.07496 17.5503 2.9995 17.9295L0.0282703 32.8435C-0.0472991 33.2228 0.0298172 33.6095 0.245428 33.9325C0.460927 34.2553 0.788585 34.4747 1.16783 34.5501L4.99106 35.3119C5.08621 35.3309 5.18155 35.3403 5.27652 35.3403C5.56013 35.3403 5.83823 35.2563 6.08006 35.0947C6.40288 34.8792 6.62245 34.5516 6.69791 34.1723L6.7095 34.1139L15.755 43.1595C16.3154 43.7199 17.0516 44 17.7878 44C18.524 44 19.26 43.7197 19.8204 43.1595C20.1988 42.7812 20.4583 42.3149 20.5803 41.8058L21.8184 43.0439C22.9394 44.1645 24.7632 44.1644 25.8838 43.0437C26.2707 42.6568 26.5243 42.1859 26.6439 41.6893C27.1791 42.1991 27.88 42.4789 28.6257 42.4789C29.3954 42.4789 30.1173 42.1807 30.6585 41.6394C31.2762 41.0216 31.5534 40.1902 31.4902 39.3808C31.5648 39.3865 31.6397 39.3895 31.7151 39.3895C32.4846 39.3895 33.2067 39.0913 33.7479 38.5498C34.5038 37.7941 34.7635 36.6663 34.456 35.6631L36.1658 33.9533L36.2092 34.1723C36.2848 34.5516 36.5042 34.8792 36.827 35.0947C37.0691 35.2563 37.3468 35.3403 37.6306 35.3403C37.7255 35.3403 37.8209 35.3309 37.9158 35.3119L41.7392 34.5501C42.1184 34.4747 42.4462 34.2553 42.6617 33.9325C42.8772 33.6095 42.9543 33.2228 42.8787 32.8435ZM5.31369 33.9468C5.3021 33.9544 5.28351 33.9627 5.26087 33.9581L1.4377 33.1965C1.41491 33.1919 1.40104 33.1773 1.39334 33.1657C1.38567 33.1543 1.37748 33.1359 1.38204 33.1133L4.35316 18.1991C4.35776 18.1765 4.3723 18.1627 4.38371 18.1549C4.39291 18.1488 4.40671 18.1424 4.42346 18.1424C4.42751 18.1424 4.43193 18.1428 4.43635 18.1437L8.25954 18.9053C8.29653 18.9126 8.32249 18.9517 8.31531 18.9885L5.34425 33.9027C5.33965 33.9253 5.32511 33.9391 5.31369 33.9468ZM32.7718 37.5737C32.4911 37.8543 32.1158 38.0089 31.715 38.0089C31.3141 38.0089 30.9388 37.8543 30.6583 37.5738L24.1538 31.0693C23.8842 30.7996 23.4472 30.7998 23.1778 31.0693C22.9082 31.3387 22.9082 31.7758 23.1778 32.0453L29.6824 38.5498C30.265 39.1323 30.265 40.0806 29.6824 40.6631C29.4017 40.9437 29.0264 41.0981 28.6256 41.0981C28.2247 41.0981 27.8494 40.9437 27.5689 40.6632L20.6959 33.7902C20.4263 33.5206 19.9894 33.5208 19.7197 33.7902C19.4503 34.0597 19.4503 34.4966 19.7197 34.7662L24.9078 39.9541L24.9104 39.9567C25.4905 40.5396 25.4894 41.4856 24.9078 42.0673C24.3251 42.6498 23.3771 42.65 22.7944 42.0675L17.2381 36.5112C16.9686 36.2417 16.5317 36.2417 16.2621 36.5112C15.9924 36.7806 15.9924 37.2177 16.2621 37.4872L18.8446 40.0697C18.8444 40.0695 18.8448 40.0699 18.8446 40.0697C19.1249 40.3502 19.2799 40.7258 19.2799 41.1265C19.2799 41.5272 19.1253 41.9026 18.8446 42.1831C18.2621 42.7658 17.3141 42.7658 16.7314 42.1831L7.03379 32.4861L9.50001 20.1065H16.4248L14.4936 21.719C13.6361 22.4347 13.2678 23.4115 13.4831 24.3985L15.0383 31.5248C15.0781 31.7066 15.1896 31.8649 15.3477 31.9634C15.5058 32.0618 15.697 32.0924 15.8778 32.0477C17.7508 31.5861 19.0032 30.6831 19.707 29.2868C20.3148 28.0811 20.4353 26.7112 20.5629 25.261C20.5792 25.0769 20.5954 24.8919 20.6127 24.7064C20.614 24.6972 20.6155 24.6899 20.6168 24.684C20.8636 24.5989 22.0012 24.8463 23.7112 26.4L33.0738 35.8992C33.3265 36.4604 33.2085 37.1369 32.7718 37.5737ZM33.6497 34.517L24.6811 25.4178C24.6724 25.4089 24.6636 25.4005 24.6544 25.3922C22.8568 23.7543 21.1617 23.0082 20.1204 23.3967C19.6266 23.581 19.3062 24.0013 19.2414 24.5504C19.2407 24.5559 19.2401 24.5612 19.2396 24.5667C19.2215 24.7587 19.2046 24.9499 19.1878 25.14C18.9626 27.7014 18.7951 29.6059 16.2289 30.5065L14.8318 24.1044C14.6921 23.4643 15.1142 22.999 15.3781 22.7787L20.5049 18.4982C21.4689 17.6933 22.8264 17.7384 23.8831 18.6101C27.7754 21.8215 31.0358 21.5848 33.5431 20.7901L35.8411 32.3256L33.6497 34.517ZM41.5136 33.1657C41.506 33.1773 41.4921 33.1919 41.4692 33.1965L37.646 33.9581C37.6234 33.9627 37.6048 33.9546 37.5934 33.9468C37.582 33.9391 37.5673 33.9253 37.5629 33.9025L34.5916 18.9885C34.587 18.9658 34.5953 18.9474 34.603 18.936C34.6106 18.9246 34.6246 18.9099 34.6474 18.9053L38.4706 18.1437C38.4752 18.1428 38.4796 18.1424 38.4836 18.1424C38.5002 18.1424 38.514 18.1488 38.5232 18.1549C38.5348 18.1627 38.5493 18.1765 38.5538 18.1993L41.5248 33.1135C41.5296 33.1359 41.5213 33.1543 41.5136 33.1657Z" fill="white"/>
</g>
</svg>
